<svg xmlns="http://www.w3.org/2000/svg" viewBox="0 0 512 512" role="img" aria-label="霓虹俄罗斯方块图标">
  <defs>
    <linearGradient id="bg" x1="0" y1="0" x2="1" y2="1">
      <stop stop-color="#121f4a"/>
      <stop offset="1" stop-color="#070d20"/>
    </linearGradient>
    <filter id="glow" x="-50%" y="-50%" width="200%" height="200%">
      <feGaussianBlur stdDeviation="9" result="blur"/>
      <feMerge><feMergeNode in="blur"/><feMergeNode in="SourceGraphic"/></feMerge>
    </filter>
  </defs>
  <rect width="512" height="512" rx="110" fill="url(#bg)"/>
  <path d="M64 84h384M64 148h384M64 212h384M64 276h384M64 340h384M64 404h384M128 52v408M192 52v408M256 52v408M320 52v408M384 52v408" stroke="#9bdcff" stroke-opacity=".12" stroke-width="2"/>
  <g filter="url(#glow)">
    <g fill="#52e6ff"><rect x="128" y="116" width="60" height="60" rx="8"/><rect x="192" y="116" width="60" height="60" rx="8"/><rect x="256" y="116" width="60" height="60" rx="8"/><rect x="320" y="116" width="60" height="60" rx="8"/></g>
    <g fill="#bb6cf3"><rect x="192" y="180" width="60" height="60" rx="8"/><rect x="256" y="180" width="60" height="60" rx="8"/><rect x="320" y="180" width="60" height="60" rx="8"/><rect x="256" y="244" width="60" height="60" rx="8"/></g>
    <g fill="#ffdc48"><rect x="128" y="308" width="60" height="60" rx="8"/><rect x="192" y="308" width="60" height="60" rx="8"/><rect x="128" y="372" width="60" height="60" rx="8"/><rect x="192" y="372" width="60" height="60" rx="8"/></g>
  </g>
  <g fill="#fff" fill-opacity=".31"><path d="M140 128h36v7h-36zm64 0h36v7h-36zm64 0h36v7h-36zm64 0h36v7h-36z"/></g>
</svg>

